HIERARCHY
ROOT hip
{
	OFFSET 0.000000 0.000000 0.000000 
	CHANNELS 6 Xposition Yposition Zposition Xrotation Zrotation Yrotation
	JOINT abdomen
	{
		OFFSET 0.000000 3.402643 0.000000 
		CHANNELS 3 Xrotation Zrotation Yrotation
		JOINT chest
		{
			OFFSET 0.000000 8.438565 -0.680529 
			CHANNELS 3 Xrotation Zrotation Yrotation
			JOINT neck
			{
				OFFSET 0.000000 10.207942 -0.272212 
				CHANNELS 3 Xrotation Zrotation Yrotation
				JOINT head
				{
					OFFSET 0.000000 3.130431 0.000000 
					CHANNELS 3 Xrotation Zrotation Yrotation
					End Site
					{
						OFFSET 0.000000 3.130435 0.000000 
					}
				}
			}
			JOINT lCollar
			{
				OFFSET 3.470700 6.669187 -0.816635 
				CHANNELS 3 Yrotation Zrotation Xrotation
				JOINT lShldr
				{
					OFFSET 3.198488 0.000000 0.000000 
					CHANNELS 3 Zrotation Yrotation Xrotation
					JOINT lForeArm
					{
						OFFSET 10.139888 0.000000 0.000000 
						CHANNELS 3 Yrotation Zrotation Xrotation
						JOINT lHand
						{
							OFFSET 8.370511 0.000000 0.000000 
							CHANNELS 3 Zrotation Yrotation Xrotation
							End Site
							{
								OFFSET 4.083176 0.000000 0.000000 
							}
						}
					}
				}
			}
			JOINT rCollar
			{
				OFFSET -3.470700 6.669187 -0.816635 
				CHANNELS 3 Yrotation Zrotation Xrotation
				JOINT rShldr
				{
					OFFSET -3.198488 0.000000 0.000000 
					CHANNELS 3 Zrotation Yrotation Xrotation
					JOINT rForeArm
					{
						OFFSET -10.139888 0.000000 0.000000 
						CHANNELS 3 Yrotation Zrotation Xrotation
						JOINT rHand
						{
							OFFSET -8.370511 0.000000 0.000000 
							CHANNELS 3 Zrotation Yrotation Xrotation
							End Site
							{
								OFFSET -4.083176 0.000000 0.000000 
							}
						}
					}
				}
			}
		}
	}
	JOINT lThigh
	{
		OFFSET 5.308129 -1.633274 1.361059 
		CHANNELS 3 Xrotation Zrotation Yrotation
		JOINT lShin
		{
			OFFSET -2.041588 -20.007561 0.000000 
			CHANNELS 3 Xrotation Zrotation Yrotation
			JOINT lFoot
			{
				OFFSET 0.000000 -19.190928 -1.224953 
				CHANNELS 3 Xrotation Yrotation Zrotation
				End Site
				{
					OFFSET 0.000000 -2.449906 4.627600 
				}
			}
		}
	}
	JOINT rThigh
	{
		OFFSET -5.308129 -1.633274 1.361059 
		CHANNELS 3 Xrotation Zrotation Yrotation
		JOINT rShin
		{
			OFFSET 2.041588 -20.007561 0.000000 
			CHANNELS 3 Xrotation Zrotation Yrotation
			JOINT rFoot
			{
				OFFSET 0.000000 -19.190928 -1.224953 
				CHANNELS 3 Xrotation Yrotation Zrotation
				End Site
				{
					OFFSET 0.000000 -2.449906 4.627600 
				}
			}
		}
	}
}
MOTION
Frames: 13
Frame Time: 0.033333
6.123861 51.824749 4.583272 -1.879129 -4.930756 -1.088366 0.000000 0.000000 0.000000 7.686289 -0.728323 6.064830 29.143648 6.093664 0.305171 -26.689199 1.152300 0.498339 -13.754845 7.720490 24.992010 -85.199631 10.089918 -4.447816 -57.644405 6.568695 70.943054 -14.842590 -6.116749 -56.775082 2.404029 5.882354 24.680641 61.363964 -5.398135 67.854301 29.569300 -48.297169 33.867947 40.414364 2.901132 -80.822411 15.209441 0.879985 16.930447 16.018862 2.401420 0.295950 16.177446 -21.365387 -0.710022 13.440409 0.263624 0.985361 26.548731 -5.190341 0.210116 14.534707 -3.135678 10.783070 
6.082336 51.829372 4.863369 -2.866416 -5.887415 -1.188429 0.000000 0.000000 0.000000 7.718762 0.300907 6.298946 30.099281 6.025311 0.295451 -26.884064 1.396338 0.830545 -13.166943 6.974365 24.993397 -84.645332 10.996272 -4.799837 -57.716606 6.117538 70.906235 -14.439822 -6.122890 -56.936840 2.394273 6.231683 24.682663 60.711563 -5.764755 67.469215 30.331783 -48.782703 35.858601 40.926964 5.099337 -80.594414 17.213396 2.071387 17.178020 15.308767 1.884570 0.228620 15.933154 -21.678049 -0.977866 13.779316 1.797109 1.421586 30.553110 -6.449768 0.325944 17.308727 -0.931093 16.630754 
6.126505 51.821472 5.067406 -4.317282 -6.356955 -0.697746 0.000000 0.000000 0.000000 8.402124 0.902532 6.407144 30.972319 6.357327 0.314904 -26.977543 1.035053 0.810767 -13.862139 6.277417 24.990679 -84.475258 11.710029 -4.917469 -57.763081 6.438251 70.549263 -13.951674 -6.071792 -57.070538 1.535182 6.335656 24.743347 60.025158 -5.588250 66.986000 31.646349 -49.563633 39.341461 41.022095 8.439493 -80.059624 19.443842 2.569809 17.171343 14.530377 1.650702 0.229852 15.949180 -22.039463 -0.979295 12.829228 2.509833 1.628218 36.247177 -7.090997 0.735156 21.257172 3.190521 25.981775 
6.121618 51.758686 5.143060 -5.018609 -6.991743 -0.650437 0.000000 0.000000 0.000000 8.688401 1.591128 6.545587 31.685640 6.435451 0.314909 -27.111078 1.025236 0.996284 -14.422262 5.873152 24.990583 -84.329178 12.147830 -5.032717 -57.580982 6.528951 70.317833 -13.613932 -5.802628 -57.223167 0.704819 6.140908 24.806866 59.879833 -5.159216 66.825600 32.298531 -50.099293 40.876362 41.334015 9.588252 -79.907425 20.663015 3.271677 17.313101 14.038789 1.367371 0.192495 15.954104 -21.975672 -1.074493 11.033916 3.193248 1.859601 39.946514 -7.058249 1.104585 23.224333 5.164375 29.556438 
6.119530 51.601425 5.092446 -4.549448 -7.733614 -0.809267 0.000000 0.000000 0.000000 8.080428 2.424434 6.764128 32.065029 6.367098 0.305199 -27.112904 1.171592 1.260101 -15.138203 6.422836 24.991119 -84.992264 11.990896 -4.592531 -57.244694 6.691737 70.267334 -13.444766 -5.421780 -57.313332 -0.269427 5.320158 24.892876 60.467434 -4.625098 67.131989 31.905466 -50.559212 39.240284 41.404896 8.457514 -80.232544 20.184204 3.965104 17.604895 14.094097 1.415867 0.225492 15.784726 -21.834036 -0.942780 7.653182 3.778053 2.082742 42.457851 -6.385306 1.509197 23.665749 5.010015 30.005438 
6.142961 51.438969 4.964544 -3.611010 -8.094829 -0.849352 0.000000 0.000000 0.000000 7.205684 2.821347 6.883450 32.421810 6.699106 0.334321 -26.995354 0.849452 1.103684 -16.504267 7.234371 24.999653 -85.849045 11.507907 -4.034441 -57.205273 6.989367 71.332130 -14.567128 -5.113135 -57.031883 -1.737185 4.685499 24.970591 60.803368 -4.240970 67.310753 31.756233 -50.817276 36.073795 40.055935 6.498214 -80.593597 18.769974 3.985116 17.738026 14.528125 2.148510 0.342960 15.313349 -21.737194 -0.659512 3.309966 3.690719 2.162756 42.935295 -4.861786 1.893355 23.126171 2.241748 27.192005 
6.101261 51.301537 4.747945 -2.513684 -8.552973 -1.156012 0.000000 0.000000 0.000000 6.580003 3.169652 6.993285 32.307247 6.943235 0.345193 -26.859814 0.712729 1.220852 -17.454250 8.211512 24.995783 -86.806564 10.799623 -3.418921 -57.458168 7.528970 72.328293 -16.082352 -5.167972 -56.622688 -2.451051 4.181659 24.971804 61.025898 -3.832649 67.383293 32.367634 -51.122585 35.077736 38.774719 5.820960 -80.652840 16.707848 4.306916 18.023628 15.731262 2.793193 0.406347 14.638655 -21.460398 -0.411707 0.097556 4.047125 2.346503 40.638691 -4.001723 1.827687 20.698608 -1.694135 21.600037 
6.047999 51.232868 4.516078 -2.234002 -8.640757 -1.186448 0.000000 0.000000 0.000000 7.115242 3.092365 6.953745 31.814245 7.167818 0.374286 -26.719440 0.458895 1.132854 -18.301413 9.274318 24.999424 -87.615440 9.825304 -2.914599 -57.638199 7.927680 72.897507 -16.992411 -5.320085 -56.296288 -2.589706 3.944644 24.983088 61.293877 -3.419785 67.510666 32.602207 -51.774399 34.427364 38.134312 5.504316 -80.657173 15.156149 4.326243 18.143608 17.361788 3.535005 0.463830 13.865880 -21.265228 -0.154295 -1.347400 4.111572 2.399507 36.540230 -3.560341 1.562870 18.912291 -5.134131 16.725105 
5.935133 51.215439 4.283422 -1.811768 -9.136432 -1.751548 0.000000 0.000000 0.000000 7.792004 3.411904 7.004724 31.110672 7.099460 0.374283 -26.671772 0.566351 0.800839 -18.371567 10.062873 24.991674 -87.995514 9.013976 -2.674755 -57.558319 7.909593 72.823555 -17.273554 -5.611361 -56.070656 -1.975976 3.766833 24.939972 61.713833 -3.105225 67.738495 32.436657 -52.585468 33.889400 38.338150 5.435356 -80.676720 13.812500 5.175374 18.539803 18.800800 3.425903 0.359306 13.422254 -20.729977 0.145371 -1.668655 4.763564 2.590153 28.841078 -3.608877 0.793607 19.855536 -6.918458 12.664547 
5.859884 51.244862 4.080494 -1.904906 -9.057504 -1.918557 0.000000 0.000000 0.000000 9.046838 3.034766 6.865455 29.973684 7.372867 0.404599 -26.677317 0.556636 0.244224 -18.528788 10.750412 24.996542 -88.412865 8.282639 -2.427882 -57.509106 8.351999 72.234467 -17.096542 -6.034706 -55.930241 -1.247725 3.802941 24.910711 62.153404 -2.683811 67.955963 31.544983 -53.172844 32.878330 38.545582 5.735827 -80.634781 13.439455 5.340981 18.627142 19.263773 3.201928 0.301692 13.588941 -20.488989 0.447284 -0.712264 4.569503 2.503309 22.404730 -3.392145 0.262407 22.487511 -6.230339 12.346490 
5.717886 51.238979 3.870462 -0.590848 -9.520061 -2.803108 0.000000 0.000000 0.000000 8.794670 3.334779 6.945654 28.783550 6.835801 0.364571 -26.429615 0.966778 0.351677 -17.224854 11.235490 24.996342 -88.404373 7.941658 -2.445695 -57.677990 8.054733 72.218582 -16.938084 -6.474938 -55.808163 0.571376 3.137012 24.840334 63.761921 -2.605488 69.008095 28.905815 -54.112446 30.930689 38.308815 6.218498 -80.490959 11.999608 6.298672 19.076637 19.480566 2.556477 0.102739 13.982096 -20.031981 0.430302 -0.682730 5.182514 2.686845 16.536905 -3.429959 -0.251904 25.766293 -4.800481 12.361267 
5.666465 51.278267 3.786216 0.107455 -9.392223 -2.931525 0.000000 0.000000 0.000000 8.819621 3.228279 6.925585 27.723864 6.396370 0.344021 -26.226099 1.220695 0.205240 -16.480667 11.189048 24.990850 -88.188354 7.838232 -2.566085 -57.933262 7.941943 72.429070 -16.381611 -6.721709 -55.833614 1.602676 2.537545 24.814442 64.830147 -2.379922 69.674927 27.558893 -54.228542 31.387072 39.245708 6.041608 -80.457932 11.344067 6.269107 19.074722 19.161619 2.351974 0.087155 14.643040 -19.800791 0.430902 1.170882 4.791096 2.525299 10.912934 -2.998410 -0.616645 26.726414 -5.597010 8.607348 
5.726751 51.431633 3.914419 -0.902901 -8.783005 -2.144978 0.000000 0.000000 0.000000 9.790746 2.686325 6.755701 27.655918 6.464728 0.344022 -26.234497 1.074211 -0.214806 -16.956497 10.228015 24.990767 -87.645676 8.190861 -2.888442 -58.170864 8.369399 72.492584 -16.021751 -6.129832 -56.131271 1.382362 2.897961 24.813726 63.621349 -2.391514 68.876625 29.925442 -52.099964 32.918625 38.979740 4.955500 -80.488380 12.784686 5.291897 18.646820 18.117910 2.527890 0.189280 15.266116 -19.798372 0.526575 3.844953 3.952475 2.214572 10.570162 -2.685817 -0.587725 25.593792 -3.851977 7.467635 
